# Rhino

g object_1
v 1 0 0
v 1 0 0.25
v 0.9888308048248291 0.1490422636270523 0
v 0.9888308048248291 0.1490422636270523 0.25
v 0.955572783946991 0.2947551608085632 0
v 0.955572783946991 0.2947551608085632 0.25
v 0.9009688496589661 0.4338837265968323 0
v 0.9009688496589661 0.4338837265968323 0.25
v 0.826238751411438 0.5633200407028198 0
v 0.826238751411438 0.5633200407028198 0.25
v 0.7330518960952759 0.6801727414131165 0
v 0.7330518960952759 0.6801727414131165 0.25
v 0.6234897971153259 0.7818315029144287 0
v 0.6234897971153259 0.7818315029144287 0.25
v 0.5 0.8660253882408142 0
v 0.5 0.8660253882408142 0.25
v 0.3653410375118256 0.9308737516403198 0
v 0.3653410375118256 0.9308737516403198 0.25
v 0.2225209325551987 0.9749279022216797 0
v 0.2225209325551987 0.9749279022216797 0.25
v 0.07473009079694748 0.9972038269042969 0
v 0.07473009079694748 0.9972038269042969 0.25
v -0.07473009079694748 0.9972038269042969 0
v -0.07473009079694748 0.9972038269042969 0.25
v -0.2225209325551987 0.9749279022216797 0
v -0.2225209325551987 0.9749279022216797 0.25
v -0.3653410375118256 0.9308737516403198 0
v -0.3653410375118256 0.9308737516403198 0.25
v -0.5 0.8660253882408142 0
v -0.5 0.8660253882408142 0.25
v -0.6234897971153259 0.7818315029144287 0
v -0.6234897971153259 0.7818315029144287 0.25
v -0.7330518960952759 0.6801727414131165 0
v -0.7330518960952759 0.6801727414131165 0.25
v -0.826238751411438 0.5633200407028198 0
v -0.826238751411438 0.5633200407028198 0.25
v -0.9009688496589661 0.4338837265968323 0
v -0.9009688496589661 0.4338837265968323 0.25
v -0.955572783946991 0.2947551608085632 0
v -0.955572783946991 0.2947551608085632 0.25
v -0.9888308048248291 0.1490422636270523 0
v -0.9888308048248291 0.1490422636270523 0.25
v -1 0 0
v -1 0 0.25
v -0.9888308048248291 -0.1490422636270523 0
v -0.9888308048248291 -0.1490422636270523 0.25
v -0.955572783946991 -0.2947551608085632 0
v -0.955572783946991 -0.2947551608085632 0.25
v -0.9009688496589661 -0.4338837265968323 0
v -0.9009688496589661 -0.4338837265968323 0.25
v -0.826238751411438 -0.5633200407028198 0
v -0.826238751411438 -0.5633200407028198 0.25
v -0.7330518960952759 -0.6801727414131165 0
v -0.7330518960952759 -0.6801727414131165 0.25
v -0.6234897971153259 -0.7818315029144287 0
v -0.6234897971153259 -0.7818315029144287 0.25
v -0.5 -0.8660253882408142 0
v -0.5 -0.8660253882408142 0.25
v -0.3653410375118256 -0.9308737516403198 0
v -0.3653410375118256 -0.9308737516403198 0.25
v -0.2225209325551987 -0.9749279022216797 0
v -0.2225209325551987 -0.9749279022216797 0.25
v -0.07473009079694748 -0.9972038269042969 0
v -0.07473009079694748 -0.9972038269042969 0.25
v 0.07473009079694748 -0.9972038269042969 0
v 0.07473009079694748 -0.9972038269042969 0.25
v 0.2225209325551987 -0.9749279022216797 0
v 0.2225209325551987 -0.9749279022216797 0.25
v 0.3653410375118256 -0.9308737516403198 0
v 0.3653410375118256 -0.9308737516403198 0.25
v 0.5 -0.8660253882408142 0
v 0.5 -0.8660253882408142 0.25
v 0.6234897971153259 -0.7818315029144287 0
v 0.6234897971153259 -0.7818315029144287 0.25
v 0.7330518960952759 -0.6801727414131165 0
v 0.7330518960952759 -0.6801727414131165 0.25
v 0.826238751411438 -0.5633200407028198 0
v 0.826238751411438 -0.5633200407028198 0.25
v 0.9009688496589661 -0.4338837265968323 0
v 0.9009688496589661 -0.4338837265968323 0.25
v 0.955572783946991 -0.2947551608085632 0
v 0.955572783946991 -0.2947551608085632 0.25
v 0.9888308048248291 -0.1490422636270523 0
v 0.9888308048248291 -0.1490422636270523 0.25
v 1 0 0
v 1 0 0.25
vt 0 0
vt 0 1
vt 0.02380952425301075 0
vt 0.02380952425301075 1
vt 0.0476190485060215 0
vt 0.0476190485060215 1
vt 0.0714285746216774 0
vt 0.0714285746216774 1
vt 0.095238097012043 0
vt 0.095238097012043 1
vt 0.1190476194024086 0
vt 0.1190476194024086 1
vt 0.1428571492433548 0
vt 0.1428571492433548 1
vt 0.1666666716337204 0
vt 0.1666666716337204 1
vt 0.190476194024086 0
vt 0.190476194024086 1
vt 0.2142857164144516 0
vt 0.2142857164144516 1
vt 0.2380952388048172 0
vt 0.2380952388048172 1
vt 0.261904776096344 0
vt 0.261904776096344 1
vt 0.2857142984867096 0
vt 0.2857142984867096 1
vt 0.3095238208770752 0
vt 0.3095238208770752 1
vt 0.3333333432674408 0
vt 0.3333333432674408 1
vt 0.3571428656578064 0
vt 0.3571428656578064 1
vt 0.380952388048172 0
vt 0.380952388048172 1
vt 0.4047619104385376 0
vt 0.4047619104385376 1
vt 0.4285714328289032 0
vt 0.4285714328289032 1
vt 0.4523809552192688 0
vt 0.4523809552192688 1
vt 0.4761904776096344 0
vt 0.4761904776096344 1
vt 0.5 0
vt 0.5 1
vt 0.523809552192688 0
vt 0.523809552192688 1
vt 0.5476190447807312 0
vt 0.5476190447807312 1
vt 0.5714285969734192 0
vt 0.5714285969734192 1
vt 0.5952380895614624 0
vt 0.5952380895614624 1
vt 0.6190476417541504 0
vt 0.6190476417541504 1
vt 0.6428571343421936 0
vt 0.6428571343421936 1
vt 0.6666666865348816 0
vt 0.6666666865348816 1
vt 0.6904761791229248 0
vt 0.6904761791229248 1
vt 0.7142857313156128 0
vt 0.7142857313156128 1
vt 0.738095223903656 0
vt 0.738095223903656 1
vt 0.761904776096344 0
vt 0.761904776096344 1
vt 0.7857142686843872 0
vt 0.7857142686843872 1
vt 0.8095238208770752 0
vt 0.8095238208770752 1
vt 0.8333333134651184 0
vt 0.8333333134651184 1
vt 0.8571428656578064 0
vt 0.8571428656578064 1
vt 0.8809523582458496 0
vt 0.8809523582458496 1
vt 0.9047619104385376 0
vt 0.9047619104385376 1
vt 0.9285714030265808 0
vt 0.9285714030265808 1
vt 0.9523809552192688 0
vt 0.9523809552192688 1
vt 0.976190447807312 0
vt 0.976190447807312 1
vt 1 0
vt 1 1
vn 1 0 0
vn 1 0 0
vn 0.9888308048248291 0.1490422636270523 0
vn 0.9888308048248291 0.1490422636270523 0
vn 0.955572783946991 0.2947551608085632 0
vn 0.955572783946991 0.2947551608085632 0
vn 0.9009688496589661 0.4338837265968323 0
vn 0.9009688496589661 0.4338837265968323 0
vn 0.826238751411438 0.5633200407028198 0
vn 0.826238751411438 0.5633200407028198 0
vn 0.7330518960952759 0.6801727414131165 0
vn 0.7330518960952759 0.6801727414131165 0
vn 0.6234897971153259 0.7818315029144287 0
vn 0.6234897971153259 0.7818315029144287 0
vn 0.5 0.8660253882408142 0
vn 0.5 0.8660253882408142 0
vn 0.3653410375118256 0.9308737516403198 0
vn 0.3653410375118256 0.9308737516403198 0
vn 0.2225209325551987 0.9749279022216797 0
vn 0.2225209325551987 0.9749279022216797 0
vn 0.07473009079694748 0.9972038269042969 0
vn 0.07473009079694748 0.9972038269042969 0
vn -0.07473009079694748 0.9972038269042969 0
vn -0.07473009079694748 0.9972038269042969 0
vn -0.2225209325551987 0.9749279022216797 0
vn -0.2225209325551987 0.9749279022216797 0
vn -0.3653410375118256 0.9308737516403198 0
vn -0.3653410375118256 0.9308737516403198 0
vn -0.5 0.8660253882408142 0
vn -0.5 0.8660253882408142 0
vn -0.6234897971153259 0.7818315029144287 0
vn -0.6234897971153259 0.7818315029144287 0
vn -0.7330518960952759 0.6801727414131165 0
vn -0.7330518960952759 0.6801727414131165 0
vn -0.826238751411438 0.5633200407028198 0
vn -0.826238751411438 0.5633200407028198 0
vn -0.9009688496589661 0.4338837265968323 0
vn -0.9009688496589661 0.4338837265968323 0
vn -0.955572783946991 0.2947551608085632 0
vn -0.955572783946991 0.2947551608085632 0
vn -0.9888308048248291 0.1490422636270523 0
vn -0.9888308048248291 0.1490422636270523 0
vn -1 0 0
vn -1 0 0
vn -0.9888308048248291 -0.1490422636270523 0
vn -0.9888308048248291 -0.1490422636270523 0
vn -0.955572783946991 -0.2947551608085632 0
vn -0.955572783946991 -0.2947551608085632 0
vn -0.9009688496589661 -0.4338837265968323 0
vn -0.9009688496589661 -0.4338837265968323 0
vn -0.826238751411438 -0.5633200407028198 0
vn -0.826238751411438 -0.5633200407028198 0
vn -0.7330518960952759 -0.6801727414131165 0
vn -0.7330518960952759 -0.6801727414131165 0
vn -0.6234897971153259 -0.7818315029144287 0
vn -0.6234897971153259 -0.7818315029144287 0
vn -0.5 -0.8660253882408142 0
vn -0.5 -0.8660253882408142 0
vn -0.3653410375118256 -0.9308737516403198 0
vn -0.3653410375118256 -0.9308737516403198 0
vn -0.2225209325551987 -0.9749279022216797 0
vn -0.2225209325551987 -0.9749279022216797 0
vn -0.07473009079694748 -0.9972038269042969 0
vn -0.07473009079694748 -0.9972038269042969 0
vn 0.07473009079694748 -0.9972038269042969 0
vn 0.07473009079694748 -0.9972038269042969 0
vn 0.2225209325551987 -0.9749279022216797 0
vn 0.2225209325551987 -0.9749279022216797 0
vn 0.3653410375118256 -0.9308737516403198 0
vn 0.3653410375118256 -0.9308737516403198 0
vn 0.5 -0.8660253882408142 0
vn 0.5 -0.8660253882408142 0
vn 0.6234897971153259 -0.7818315029144287 0
vn 0.6234897971153259 -0.7818315029144287 0
vn 0.7330518960952759 -0.6801727414131165 0
vn 0.7330518960952759 -0.6801727414131165 0
vn 0.826238751411438 -0.5633200407028198 0
vn 0.826238751411438 -0.5633200407028198 0
vn 0.9009688496589661 -0.4338837265968323 0
vn 0.9009688496589661 -0.4338837265968323 0
vn 0.955572783946991 -0.2947551608085632 0
vn 0.955572783946991 -0.2947551608085632 0
vn 0.9888308048248291 -0.1490422636270523 0
vn 0.9888308048248291 -0.1490422636270523 0
vn 1 0 0
vn 1 0 0
f 1/1/1 3/3/3 4/4/4 2/2/2
f 3/3/3 5/5/5 6/6/6 4/4/4
f 5/5/5 7/7/7 8/8/8 6/6/6
f 7/7/7 9/9/9 10/10/10 8/8/8
f 9/9/9 11/11/11 12/12/12 10/10/10
f 11/11/11 13/13/13 14/14/14 12/12/12
f 13/13/13 15/15/15 16/16/16 14/14/14
f 15/15/15 17/17/17 18/18/18 16/16/16
f 17/17/17 19/19/19 20/20/20 18/18/18
f 19/19/19 21/21/21 22/22/22 20/20/20
f 21/21/21 23/23/23 24/24/24 22/22/22
f 23/23/23 25/25/25 26/26/26 24/24/24
f 25/25/25 27/27/27 28/28/28 26/26/26
f 27/27/27 29/29/29 30/30/30 28/28/28
f 29/29/29 31/31/31 32/32/32 30/30/30
f 31/31/31 33/33/33 34/34/34 32/32/32
f 33/33/33 35/35/35 36/36/36 34/34/34
f 35/35/35 37/37/37 38/38/38 36/36/36
f 37/37/37 39/39/39 40/40/40 38/38/38
f 39/39/39 41/41/41 42/42/42 40/40/40
f 41/41/41 43/43/43 44/44/44 42/42/42
f 43/43/43 45/45/45 46/46/46 44/44/44
f 45/45/45 47/47/47 48/48/48 46/46/46
f 47/47/47 49/49/49 50/50/50 48/48/48
f 49/49/49 51/51/51 52/52/52 50/50/50
f 51/51/51 53/53/53 54/54/54 52/52/52
f 53/53/53 55/55/55 56/56/56 54/54/54
f 55/55/55 57/57/57 58/58/58 56/56/56
f 57/57/57 59/59/59 60/60/60 58/58/58
f 59/59/59 61/61/61 62/62/62 60/60/60
f 61/61/61 63/63/63 64/64/64 62/62/62
f 63/63/63 65/65/65 66/66/66 64/64/64
f 65/65/65 67/67/67 68/68/68 66/66/66
f 67/67/67 69/69/69 70/70/70 68/68/68
f 69/69/69 71/71/71 72/72/72 70/70/70
f 71/71/71 73/73/73 74/74/74 72/72/72
f 73/73/73 75/75/75 76/76/76 74/74/74
f 75/75/75 77/77/77 78/78/78 76/76/76
f 77/77/77 79/79/79 80/80/80 78/78/78
f 79/79/79 81/81/81 82/82/82 80/80/80
f 81/81/81 83/83/83 84/84/84 82/82/82
f 83/83/83 85/85/85 86/86/86 84/84/84
